<svg xmlns="http://www.w3.org/2000/svg" width="55.385" height="80" viewBox="0 0 55.385 80">
  <g id="logo_putih" data-name="logo putih" transform="translate(0 0)">
    <path id="Path_3577" data-name="Path 3577" d="M102.992,143.1a5.851,5.851,0,0,1-1.539,1.064,4.367,4.367,0,0,1-6.024-3.375,4.731,4.731,0,0,1,.967-3.839,4.414,4.414,0,0,1,6.376-.352,1.738,1.738,0,0,1,.22.255v.848q-1.845,2.222-3.689,4.445c-.022.026-.045.05-.078.09a2.368,2.368,0,0,0,2.651-1.123l1.116,1.206Zm-5.177-1.986,2.537-3.374a2.106,2.106,0,0,0-2.161.517,2.5,2.5,0,0,0-.376,2.857" transform="translate(-47.607 -67.597)" fill="#fff"/>
    <path id="Path_3578" data-name="Path 3578" d="M18.7,144.52h-2.14v-.334c0-1.688,0-3.375,0-5.062A1.111,1.111,0,0,0,15.143,138a1.139,1.139,0,0,0-.8,1.171c0,1.632,0,3.264,0,4.9,0,.512.069.464-.453.467-.482,0-.965-.008-1.446,0-.207.005-.268-.061-.267-.27q.012-2.574,0-5.146a1.09,1.09,0,0,0-.9-1.139,1.073,1.073,0,0,0-1.3.969c-.027.416-.013.834-.014,1.251,0,1.345-.006,2.689,0,4.033,0,.227-.06.309-.294.3-.537-.016-1.075-.01-1.613,0-.182,0-.267-.044-.267-.247q.008-4.075.005-8.15a1.056,1.056,0,0,1,.021-.152c.6-.229.744.352,1.1.6a3.334,3.334,0,0,1,2.217-.794,2.616,2.616,0,0,1,2.1,1,2.622,2.622,0,0,1,1.436-.917,3.266,3.266,0,0,1,4.03,3.051c.032,1.817.008,3.635.008,5.452,0,.036-.008.072-.017.144" transform="translate(-3.896 -67.784)" fill="#fff"/>
    <path id="Path_3579" data-name="Path 3579" d="M35.05,143.8v3.829H32.9v-11.81a.589.589,0,0,1,.717.23c.183.265.412.5.637.764.072-.057.136-.1.2-.155a4.391,4.391,0,0,1,2.891-1.189,4.288,4.288,0,0,1,4.265,3.832,5.117,5.117,0,0,1-.636,3.291,4.11,4.11,0,0,1-5.468,1.448c-.127-.075-.259-.138-.451-.24m2.309-6.146a2.176,2.176,0,0,0-2.274,2.04,2.265,2.265,0,0,0,2.022,2.665,2.358,2.358,0,0,0,.252-4.7" transform="translate(-16.424 -67.626)" fill="#fff"/>
    <path id="Path_3580" data-name="Path 3580" d="M85.613,136.162v2.126H81.471c-.074,0-.148,0-.222,0a.564.564,0,0,0-.6.559.549.549,0,0,0,.6.577c.732.005,1.464-.009,2.2,0a2.657,2.657,0,0,1,2.408,1.283,2.7,2.7,0,0,1-2.009,3.97c-.368.036-.74.026-1.111.027-1.289,0-4.252,0-4.252,0s0-1.544,0-2.167h4.9c.358,0,.638-.144.638-.475,0-.265-.115-.472-.663-.472-.769-.009-1.667.018-2.434-.027a2.726,2.726,0,0,1-.237-5.388,1.909,1.909,0,0,1,.33-.046q2.252,0,4.5,0a.457.457,0,0,1,.089.027" transform="translate(-39.18 -67.959)" fill="#fff"/>
    <path id="Path_3581" data-name="Path 3581" d="M59.1,143.783a12.3,12.3,0,0,1-1.59.886,3.659,3.659,0,0,1-4.762-2.707,4.5,4.5,0,0,1-.114-.935c-.011-1.557-.006-3.114-.005-4.672,0-.063.006-.126.011-.207h2.144v.306c0,1.446,0,2.892,0,4.338a2.86,2.86,0,0,0,.071.66,1.6,1.6,0,0,0,1.336,1.247,1.579,1.579,0,0,0,1.654-.874,2.556,2.556,0,0,0,.268-1.03c.029-1.427.012-2.855.012-4.283v-.359h2.148v8.531a.561.561,0,0,1-.728-.251,5.94,5.94,0,0,0-.448-.652" transform="translate(-26.271 -67.966)" fill="#fff"/>
    <path id="Path_3582" data-name="Path 3582" d="M.808,135.946c0-1.881.005-3.762,0-5.643a.9.9,0,0,1,.556-.986,1.321,1.321,0,0,1,1.387.174.975.975,0,0,1,.284.811q0,1.807,0,3.614,0,3.836,0,7.672a.965.965,0,0,1-.477.987,1.375,1.375,0,0,1-1.308-.012.879.879,0,0,1-.443-.863c.007-1.844,0-3.688,0-5.532v-.222" transform="translate(-0.401 -64.498)" fill="#fff"/>
    <path id="Path_3583" data-name="Path 3583" d="M71.344,129.261H73.5c.005.1.014.186.014.276q0,5.714.007,11.428c0,.268-.087.326-.331.32-.609-.014-1.22,0-1.85,0Z" transform="translate(-35.616 -64.528)" fill="#fff"/>
    <path id="Path_3584" data-name="Path 3584" d="M3.156,121.725a1.451,1.451,0,0,1-1.447,1.448,1.466,1.466,0,1,1,1.447-1.448" transform="translate(-0.119 -60.026)" fill="#fff"/>
    <path id="Path_3585" data-name="Path 3585" d="M28.991,45a3.359,3.359,0,1,1-3.358-3.358A3.358,3.358,0,0,1,28.991,45" transform="translate(-11.119 -20.788)" fill="#fff"/>
    <path id="Path_3586" data-name="Path 3586" d="M25.3,0a25.3,25.3,0,0,0-7.044,49.59V40.822a17.049,17.049,0,1,1,14.087,0V49.59A25.3,25.3,0,0,0,25.3,0" fill="#fff"/>
    <path id="Path_3587" data-name="Path 3587" d="M68.223,55.786a3.646,3.646,0,0,0-3.646,3.646V68.67a17.127,17.127,0,0,0,7.293-6.305V59.432a3.646,3.646,0,0,0-3.646-3.646" transform="translate(-32.237 -27.849)" fill="#fff"/>
    <path id="Path_3588" data-name="Path 3588" d="M25.53,55.786a3.646,3.646,0,0,0-3.646,3.646v2.932a17.129,17.129,0,0,0,7.293,6.306V59.432a3.646,3.646,0,0,0-3.646-3.646" transform="translate(-10.925 -27.849)" fill="#fff"/>
    <path id="Path_3589" data-name="Path 3589" d="M71.923,45a3.359,3.359,0,1,1-3.358-3.358A3.358,3.358,0,0,1,71.923,45" transform="translate(-32.551 -20.788)" fill="#fff"/>
    <path id="Path_3590" data-name="Path 3590" d="M51.023,34.8a3.955,3.955,0,1,1-3.955-3.955A3.955,3.955,0,0,1,51.023,34.8" transform="translate(-21.523 -15.397)" fill="#fff"/>
    <path id="Path_3591" data-name="Path 3591" d="M51.024,80.2s-.246,1.414-2.723,3.959A18.981,18.981,0,0,1,42.477,88V54.226a4.273,4.273,0,1,1,8.547,0Z" transform="translate(-21.205 -24.937)" fill="#fff"/>
    <rect id="Rectangle_3540" data-name="Rectangle 3540" width="55.385" height="80" fill="none"/>
  </g>
</svg>
